<svg xmlns="http://www.w3.org/2000/svg" width="512" height="512"><path d="M228.5 1.515C208.951 4.55 205.089 5.278 194 8.021 103.596 30.384 31.276 102.113 8.447 192.057c-15.851 62.451-8.619 124.77 21.265 183.258 19.29 37.753 53 74.029 91 97.923 28.377 17.844 63.192 30.627 97.788 35.906 24.002 3.662 58.357 2.953 84-1.733 89.974-16.445 164.671-80.636 195.027-167.598 7.679-21.999 13.217-50.148 13.623-69.249.14-6.557.201-6.741.85-2.564.49 3.149.745.654.85-8.309.097-8.321-.2-12.593-.85-12.191-.63.389-1-1.927-1-6.255 0-15.62-4.77-42.137-11.177-62.14l-3.039-9.487-5.264 14.441c-18.341 50.316-42.917 90.53-74.58 122.037-23.554 23.438-46.655 37.902-72.496 45.393-4.919 1.426-11.463 2.856-14.542 3.178l-5.599.586.478-17.384c.537-19.513-.955-44.623-3.779-63.616-1.039-6.985-1.789-12.799-1.667-12.921.517-.517 13.755 4.585 19.59 7.55 15.023 7.635 27.953 18.755 37.526 32.273 3.25 4.59 6.333 8.795 6.85 9.345.589.626.753-2.922.439-9.5-.861-18.024-8.327-35.728-20.845-49.424-10.473-11.46-28.568-21.017-44.9-23.714-4.629-.764-6.995-1.611-6.995-2.503 0-.741-1.996-7.413-4.435-14.827-14.571-44.279-31.831-53.53-63.475-34.02l-7.09 4.371.011-3.191c.012-3.778 2.708-29.675 3.562-34.229l.594-3.166 5.25 5.25c17.271 17.271 45.514 18.009 63.694 1.663 5.025-4.518 12.573-14.86 11.574-15.858-.265-.266-3.152.864-6.414 2.511-8.836 4.461-17.47 6.467-27.771 6.452-14.883-.022-29.256-5.092-39.173-13.819l-4.692-4.129 2.798-14.433c7.986-41.204 20.071-78.606 28.875-89.372l2.403-2.937 17.395 12.031c27.843 19.26 41.965 27.024 59.54 32.734 16.693 5.423 37.101 7.094 62.598 5.125l9.744-.752-7.244-5.959c-32.727-26.918-72.962-45.952-113.801-53.833-21.79-4.205-60.381-5.95-76.443-3.456M367 146.29c0 9.885 5.166 22.663 12.313 30.457 8.246 8.994 18.741 14.014 31.207 14.929 14.504 1.064 25.864-3.084 36.092-13.181 5.301-5.234 11.582-14.495 9.83-14.495-.329 0-3.826 1.526-7.77 3.391-9.849 4.656-16.535 6.091-27.672 5.94-19.652-.267-37.588-9.488-48.673-25.021-2.476-3.471-4.688-6.31-4.915-6.31-.226 0-.412 1.93-.412 4.29M.389 260.5c.001 7.15.161 9.944.353 6.208.193-3.735.192-9.585-.003-13-.194-3.414-.352-.358-.35 6.792" fill="undefined" fill-rule="evenodd"/></svg>